<svg width="24" height="24" viewBox="0 0 24 24" fill="none" xmlns="http://www.w3.org/2000/svg">
<path d="M0 8.68569C0 5.64543 0 4.12528 0.591677 2.96405C1.11213 1.9426 1.9426 1.11213 2.96405 0.591677C4.12528 0 5.64543 0 8.68569 0H15.3143C18.3546 0 19.8747 0 21.0359 0.591677C22.0574 1.11213 22.8879 1.9426 23.4083 2.96405C24 4.12528 24 5.64543 24 8.68569V15.3143C24 18.3546 24 19.8747 23.4083 21.0359C22.8879 22.0574 22.0574 22.8879 21.0359 23.4083C19.8747 24 18.3546 24 15.3143 24H8.68569C5.64543 24 4.12528 24 2.96405 23.4083C1.9426 22.8879 1.11213 22.0574 0.591677 21.0359C0 19.8747 0 18.3546 0 15.3143V8.68569Z" fill="white"/>
<path d="M12.5542 7.05754L9.55956 12.127L12.7634 17.5101C12.83 17.6322 12.7634 17.6592 12.6669 17.6592H10.3807C10.2196 17.6592 10.1069 17.6534 10.0426 17.5432C9.82768 17.1139 9.61305 16.6873 9.3985 16.2634C9.1837 15.8397 8.95562 15.4077 8.71433 14.9672C8.47279 14.527 8.23399 14.0812 7.99785 13.6297C7.78305 14.0701 7.54416 14.5104 7.31359 14.9507C7.08268 15.3911 6.85459 15.8287 6.62934 16.2634C6.40396 16.6984 6.17319 17.1305 5.93706 17.5597C5.89404 17.6588 5.8188 17.669 5.71162 17.669H3.50596C3.41929 17.669 3.40883 17.6038 3.45766 17.5267L6.56494 12.2921L3.53813 7.04099C3.48316 6.96608 3.53047 6.88628 3.61865 6.89237H5.88872C5.98702 6.88688 6.07389 6.92391 6.13023 7.00799C6.32344 7.44839 6.5381 7.88879 6.77422 8.32902C7.01016 8.76942 7.24905 9.20434 7.49068 9.63351C7.73222 10.0629 7.97102 10.4977 8.17493 10.9381C8.38948 10.4868 8.60685 10.0465 8.82696 9.61705C9.04691 9.18771 9.27225 8.75562 9.50316 8.32079C9.7339 7.88605 9.95659 7.45397 10.1713 7.02454C10.1998 6.93034 10.2681 6.88259 10.3645 6.89237H12.4736C12.5542 6.89237 12.5874 7.00234 12.5542 7.05754Z" fill="black"/>
<path d="M17.1746 17.8736C15.7548 17.8958 14.2675 17.3111 13.5199 16.0159C13.155 15.394 12.9725 14.6152 12.9726 13.6793C12.9665 12.9214 13.1553 12.1753 13.5199 11.5161C14.4608 9.83426 16.3563 9.20409 18.1567 9.36951V6.11645C18.1567 6.03956 18.189 6.00087 18.2533 6.00087H20.2819C20.3374 5.99274 20.3864 6.04305 20.3785 6.09993V15.859C20.3785 16.2616 20.4185 16.6629 20.443 17.0644C20.4469 17.133 20.4072 17.2009 20.3463 17.2296C19.344 17.6583 18.2595 17.8686 17.1746 17.8736ZM18.1567 15.8259V11.318C16.6862 10.9095 15.2586 12.0295 15.2587 13.5802C15.2238 15.1835 16.6059 16.2912 18.1567 15.8259Z" fill="black"/>
</svg>
