<svg width="28" height="28" viewBox="0 0 28 28" fill="none" xmlns="http://www.w3.org/2000/svg">
<rect width="28" height="28" fill="white"/>
<path d="M0 14V28H14H28V14V-4.58956e-06H14H0V14ZM9.135 8.435C10.668 8.764 11.746 9.814 12.082 11.312C12.25 12.075 12.194 13.517 11.97 14.105L11.809 14.532L11.396 14.609C10.626 14.756 10.122 15.253 9.975 16.023C9.898 16.415 9.898 16.415 9.499 16.576C8.967 16.786 8.092 16.87 6.251 16.87H4.69V12.6V8.33H6.671C8.141 8.33 8.771 8.358 9.135 8.435ZM15.365 12.53C15.365 16.331 15.351 16.737 15.239 17.143C14.847 18.529 13.909 19.481 12.684 19.733C11.452 19.992 10.241 19.698 9.387 18.928C9.051 18.62 8.61 17.99 8.61 17.801C8.61 17.759 8.743 17.703 8.911 17.675C9.072 17.647 9.422 17.549 9.681 17.451L10.157 17.283L10.507 17.598C10.899 17.948 11.193 18.06 11.732 18.06C12.432 18.06 13.181 17.493 13.37 16.814C13.412 16.653 13.44 15.057 13.44 12.439V8.323L14.406 8.344L15.365 8.365V12.53ZM21.875 8.54C22.526 8.743 23.254 9.128 23.639 9.478L23.947 9.765L23.52 10.29C23.282 10.577 23.051 10.857 23.002 10.906C22.932 10.976 22.827 10.934 22.456 10.682C21.791 10.241 21.378 10.115 20.58 10.115C20.027 10.115 19.859 10.143 19.586 10.276C19.152 10.493 18.956 10.773 18.914 11.235C18.858 11.893 19.11 12.194 20.09 12.649C21.189 13.16 21.294 13.209 21.77 13.405C23.422 14.084 24.157 14.91 24.262 16.205C24.374 17.556 23.688 18.746 22.456 19.348C21.819 19.663 21.147 19.81 20.335 19.81C18.998 19.81 17.605 19.292 16.667 18.445L16.387 18.186L16.947 17.535L17.507 16.877L18.018 17.248C19.194 18.095 20.489 18.333 21.455 17.892C21.959 17.661 22.211 17.318 22.246 16.807C22.309 15.953 21.987 15.673 19.985 14.805C18.179 14.028 17.535 13.552 17.136 12.705C16.653 11.669 16.877 10.304 17.661 9.464C18.088 9.009 19.026 8.533 19.761 8.4C20.314 8.302 21.315 8.372 21.875 8.54ZM12.306 15.379C12.621 15.617 12.761 15.862 12.796 16.254C12.824 16.681 12.663 16.996 12.257 17.269C11.627 17.689 10.675 17.248 10.591 16.492C10.57 16.324 10.57 16.1 10.598 16.002C10.654 15.764 10.976 15.4 11.235 15.288C11.515 15.155 12.075 15.204 12.306 15.379Z" fill="black"/>
<path d="M6.76897 10.1989C6.74097 10.2199 6.71997 11.3119 6.71997 12.6209V14.9939L7.61597 14.9659C8.32297 14.9449 8.56797 14.9099 8.81997 14.7979C9.56197 14.4619 9.95397 13.7829 9.99597 12.7539C10.066 11.2559 9.51297 10.4159 8.32997 10.2269C7.81897 10.1429 6.83897 10.1219 6.76897 10.1989Z" fill="black"/>
</svg>
