<svg width="25" height="18" viewBox="0 0 25 18" fill="none" xmlns="http://www.w3.org/2000/svg">
<path d="M24.0502 6.76252C23.4972 6.37883 22.2299 6.23494 21.2392 6.42679C21.124 5.46757 20.5941 4.62825 19.6724 3.88485L19.1425 3.50116L18.7738 4.05271C18.313 4.77213 18.0826 5.77931 18.1517 6.73854C18.1748 7.07426 18.29 7.67378 18.6356 8.20135C18.313 8.39319 17.6448 8.633 16.7693 8.633H0.110773L0.0646909 8.82484C-0.0965948 9.78407 -0.0965948 12.7816 1.79275 15.0838C3.22128 16.8343 5.34104 17.7216 8.12897 17.7216C14.1657 17.7216 18.6356 14.82 20.7323 9.56824C21.5618 9.59222 23.3359 9.56824 24.2345 7.7697C24.2575 7.72174 24.3036 7.62582 24.4649 7.26611L24.5571 7.07426L24.0502 6.76252ZM13.4284 0H10.8939V2.39806H13.4284V0ZM13.4284 2.87767H10.8939V5.27572H13.4284V2.87767ZM10.4331 2.87767H7.89857V5.27572H10.4331V2.87767ZM7.43775 2.87767H4.90326V5.27572H7.43775V2.87767ZM4.44244 5.75533H1.90796V8.15339H4.44244V5.75533ZM7.43775 5.75533H4.90326V8.15339H7.43775V5.75533ZM10.4331 5.75533H7.89857V8.15339H10.4331V5.75533ZM13.4284 5.75533H10.8939V8.15339H13.4284V5.75533ZM16.4237 5.75533H13.8892V8.15339H16.4237V5.75533Z" fill="white"/>
</svg>
