<svg width="21" height="12" viewBox="0 0 21 12" fill="none" xmlns="http://www.w3.org/2000/svg">
<path d="M0 7.15787V4.64992L8.89484 0V2.30396L2.32496 5.85814L8.89634 9.48433V11.8093L0 7.15787ZM20.8601 0.497991L13.0985 11.3255H10.4338L18.2104 0.497241L20.8601 0.497991ZM18.7099 10.0288C18.7979 10.0305 18.8852 10.0127 18.9654 9.97666C19.0457 9.94061 19.117 9.88722 19.1742 9.82032C19.303 9.66722 19.3694 9.47121 19.3602 9.27133C19.3676 9.06691 19.3017 8.86656 19.1742 8.70659C19.1204 8.63672 19.0512 8.58014 18.9721 8.5412C18.893 8.50227 18.806 8.48202 18.7178 8.48202C18.6296 8.48202 18.5426 8.50227 18.4635 8.5412C18.3843 8.58014 18.3152 8.63672 18.2614 8.70659C18.1339 8.86656 18.0679 9.06691 18.0754 9.27133C18.066 9.46985 18.1292 9.66502 18.2532 9.82032C18.3084 9.88751 18.3783 9.94121 18.4575 9.97734C18.5366 10.0135 18.6229 10.0311 18.7099 10.0288ZM20.3494 10.8103C19.9017 11.2149 19.3194 11.4383 18.716 11.4369C18.1125 11.4355 17.5313 11.2095 17.0854 10.8028C16.8803 10.6027 16.7174 10.3636 16.6061 10.0996C16.4948 9.83551 16.4375 9.55187 16.4375 9.26533C16.4375 8.9788 16.4948 8.69515 16.6061 8.43111C16.7174 8.16707 16.8803 7.92796 17.0854 7.72786C17.5311 7.32 18.1133 7.09379 18.7174 7.09379C19.3215 7.09379 19.9037 7.32 20.3494 7.72786C20.5585 7.92566 20.7242 8.16471 20.8361 8.42987C20.9481 8.69503 21.0037 8.98054 20.9996 9.26833C21.0051 9.55603 20.9502 9.84168 20.8383 10.1068C20.7264 10.3719 20.5601 10.6106 20.3501 10.8073L20.3494 10.8103ZM12.6155 3.69968C12.7035 3.70139 12.7908 3.68358 12.871 3.64753C12.9513 3.61147 13.0226 3.55808 13.0798 3.49119C13.2086 3.33808 13.275 3.14207 13.2658 2.9422C13.2733 2.73777 13.2073 2.53742 13.0798 2.37746C13.0259 2.30772 12.9567 2.25125 12.8776 2.21241C12.7985 2.17356 12.7115 2.15336 12.6234 2.15336C12.5353 2.15336 12.4483 2.17356 12.3692 2.21241C12.2901 2.25125 12.2209 2.30772 12.167 2.37746C12.0395 2.53742 11.9735 2.73777 11.981 2.9422C11.9716 3.14072 12.0348 3.33588 12.1588 3.49119C12.2141 3.55837 12.2839 3.61207 12.3631 3.6482C12.4422 3.68433 12.5285 3.70194 12.6155 3.69968ZM14.255 4.47892C13.8073 4.88353 13.225 5.10692 12.6216 5.10554C12.0181 5.10415 11.4369 4.87809 10.9911 4.47142C10.786 4.27132 10.623 4.03221 10.5117 3.76817C10.4004 3.50413 10.3431 3.22048 10.3431 2.93395C10.3431 2.64741 10.4004 2.36377 10.5117 2.09972C10.623 1.83568 10.786 1.59657 10.9911 1.39647C11.4367 0.98861 12.0189 0.7624 12.623 0.7624C13.2271 0.7624 13.8093 0.98861 14.255 1.39647C14.4648 1.59511 14.6309 1.83528 14.7427 2.10167C14.8545 2.36806 14.9096 2.65483 14.9045 2.9437C14.9095 3.23077 14.8543 3.5157 14.7424 3.78012C14.6305 4.04455 14.4645 4.28259 14.255 4.47892Z" fill="white"/>
</svg>
