<svg width="22" height="26" viewBox="0 0 22 26" fill="none" xmlns="http://www.w3.org/2000/svg">
<path fill-rule="evenodd" clip-rule="evenodd" d="M0.975486 12.7541C1.00145 14.3729 1.19084 15.8762 1.54444 17.2633C1.89727 18.6495 2.44508 19.8585 3.19024 20.8886C3.93383 21.918 4.89685 22.7309 6.07772 23.3267C7.25937 23.9224 8.70618 24.2228 10.4173 24.2285C12.9414 24.2369 15.0365 23.5823 16.7074 22.2647C18.3775 20.9455 19.4196 18.9658 19.8329 16.3201L20.7672 16.3232C20.4153 19.1243 19.3028 21.2919 17.4298 22.8276C15.5559 24.3624 13.2488 25.126 10.5084 25.1169C8.6404 25.142 7.04467 24.8404 5.72438 24.2129C4.40173 23.5861 3.32294 22.7022 2.48643 21.5628C1.64914 20.4234 1.03122 19.0825 0.631882 17.5401C0.232546 15.9977 0.0358327 14.3399 0.0417517 12.5637C0.0483916 10.5711 0.34982 8.79744 0.946821 7.24267C1.54382 5.6879 2.32658 4.37361 3.29587 3.30295C4.26203 2.23227 5.38566 1.42079 6.66522 0.863805C7.94478 0.30682 9.25319 0.0305562 10.592 0.0350176C12.46 0.0412422 14.0712 0.404839 15.4225 1.12501C16.7746 1.84597 17.8767 2.79969 18.7287 3.98539C19.5815 5.17187 20.1994 6.52845 20.5839 8.05513C20.9676 9.58103 21.1262 11.1689 21.0579 12.8203L0.976273 12.7534L0.975486 12.7541ZM20.1283 11.8836C20.1331 10.4201 19.934 9.02575 19.5347 7.70125C19.1346 6.37675 18.5396 5.21464 17.7481 4.21493C16.9574 3.21678 15.9716 2.42728 14.7899 1.8472C13.6082 1.26712 12.2389 0.974875 10.6822 0.969688C9.37314 0.965325 8.15107 1.20974 7.01281 1.70449C5.87455 2.19923 4.87664 2.9202 4.01672 3.86581C3.15758 4.813 2.46084 5.95512 1.92649 7.29218C1.39292 8.62925 1.0767 10.1387 0.9786 11.8198L20.1283 11.8836Z" fill="white"/>
</svg>
