<svg width="16" height="25" viewBox="0 0 16 25" fill="none" xmlns="http://www.w3.org/2000/svg">
<path d="M7.90002 12.154C7.90002 9.91593 9.66927 8.10327 11.85 8.10327C14.0325 8.10327 15.8 9.91419 15.8 12.154C15.8 14.392 14.0325 16.2047 11.85 16.2047C9.67101 16.2047 7.90002 14.3937 7.90002 12.154Z" fill="white"/>
<path d="M0 20.257C0 18.019 1.76925 16.2046 3.95 16.2046H7.89999V20.257C7.89999 22.4933 6.13074 24.3077 3.95 24.3077C1.76925 24.3077 0 22.4933 0 20.257Z" fill="white"/>
<path d="M7.90002 0V8.10313H11.85C14.0325 8.10313 15.8 6.28874 15.8 4.0507C15.8 1.81439 14.0325 0 11.85 0H7.90002Z" fill="white"/>
<path d="M0 4.0507C0 6.28874 1.76925 8.10313 3.95 8.10313H7.89999V0H3.95C1.76925 0 0 1.81439 0 4.0507Z" fill="white"/>
<path d="M0 12.154C0 14.392 1.76925 16.2047 3.95 16.2047H7.89999V8.10327H3.95C1.76925 8.10327 0 9.91419 0 12.154Z" fill="white"/>
</svg>
