<svg width="18" height="24" viewBox="0 0 18 24" fill="none" xmlns="http://www.w3.org/2000/svg">
<path d="M0 19.3719L0.145721 19.1687L7.02033 6.12753L7.0349 5.98952L4.00476 0.29783C3.94928 0.193748 3.86249 0.109744 3.75665 0.0577024C3.65081 0.00566048 3.53128 -0.0117844 3.41499 0.00783569C3.29869 0.0274558 3.1915 0.0831474 3.10859 0.167032C3.02568 0.250916 2.97125 0.358746 2.95299 0.475267L0 19.3719Z" fill="white"/>
<path d="M0.0856934 19.2176L0.195413 19.0033L6.99887 6.09756L3.97645 0.383577C3.9266 0.284206 3.84591 0.20366 3.74644 0.154006C3.64698 0.104352 3.5341 0.0882632 3.42472 0.10815C3.31534 0.128037 3.21536 0.182828 3.13973 0.264316C3.06411 0.345804 3.01693 0.449601 3.00526 0.560157L0.0856934 19.2176Z" fill="white"/>
<path d="M9.24382 10.2942L11.4999 7.9798L9.24296 3.67588C9.19329 3.58326 9.11942 3.50584 9.02923 3.45186C8.93904 3.39789 8.8359 3.36938 8.7308 3.36938C8.62569 3.36938 8.52255 3.39789 8.43236 3.45186C8.34217 3.50584 8.2683 3.58326 8.21863 3.67588L7.01257 5.97485V6.17114L9.24382 10.2942Z" fill="white"/>
<path d="M9.20359 10.2L11.3971 7.95423L9.20359 3.77118C9.16768 3.68063 9.10635 3.60241 9.027 3.54593C8.94764 3.48945 8.85364 3.45713 8.75633 3.45288C8.65902 3.44862 8.56255 3.4726 8.47856 3.52193C8.39457 3.57126 8.32665 3.64383 8.28297 3.73089L7.07091 6.07014L7.03491 6.18929L9.20359 10.2Z" fill="white"/>
<path d="M0.00170898 19.3728L0.0677122 19.3059L0.306866 19.2091L9.10156 10.4469L9.21299 10.1435L7.01946 5.96216L0.00170898 19.3728Z" fill="white"/>
<path d="M9.52502 23.7915L17.4865 19.3522L15.2116 5.35352C15.1953 5.25484 15.1521 5.16255 15.0868 5.08681C15.0214 5.01106 14.9365 4.95477 14.8413 4.92413C14.7461 4.89348 14.6443 4.88966 14.547 4.91309C14.4498 4.93652 14.3609 4.98629 14.2901 5.05693L0 19.3719L7.91437 23.7907C8.16042 23.928 8.4375 24 8.71926 24C9.00103 24 9.27811 23.928 9.52416 23.7907" fill="white"/>
<path d="M17.4136 19.3154L15.1575 5.42216C15.1536 5.32777 15.1217 5.23669 15.0659 5.16044C15.0101 5.08418 14.933 5.02619 14.8442 4.99379C14.7555 4.9614 14.6591 4.95606 14.5674 4.97845C14.4756 5.00084 14.3925 5.04995 14.3286 5.11958L0.0856934 19.3454L7.91263 23.717C8.15672 23.8532 8.43159 23.9247 8.71109 23.9247C8.9906 23.9247 9.26547 23.8532 9.50956 23.717L17.4136 19.3154Z" fill="white"/>
<path d="M9.52502 23.6578C9.27897 23.7951 9.00188 23.8672 8.72012 23.8672C8.43836 23.8672 8.16128 23.7951 7.91523 23.6578L0.0651457 19.305L0 19.3719L7.91437 23.7907C8.16042 23.928 8.4375 24.0001 8.71926 24.0001C9.00103 24.0001 9.27811 23.928 9.52416 23.7907L17.4865 19.3522L17.4668 19.2322L9.52502 23.6578Z" fill="white"/>
</svg>
