<svg width="25" height="25" viewBox="0 0 25 25" fill="none" xmlns="http://www.w3.org/2000/svg">
<path d="M0.522643 13.7618C-0.174214 13.0649 -0.174214 11.9351 0.522643 11.2382L11.2382 0.522643C11.9351 -0.174214 13.0649 -0.174214 13.7618 0.522643L24.4773 11.2382C25.1742 11.9351 25.1742 13.0649 24.4773 13.7618L13.7618 24.4773C13.0649 25.1742 11.9351 25.1742 11.2382 24.4773L0.522643 13.7618Z" fill="white"/>
<path d="M9.06153 2.7334L7.97644 3.81852L10.779 6.62112C10.6656 6.86436 10.6023 7.13563 10.6023 7.42169C10.6023 8.23383 11.1126 8.92678 11.83 9.1974V16.0533C11.1126 16.3239 10.6023 17.0169 10.6023 17.829C10.6023 18.8769 11.4518 19.7263 12.4997 19.7263C13.5475 19.7263 14.397 18.8769 14.397 17.829C14.397 17.0928 13.9776 16.4544 13.3647 16.1399V9.20678L16.0437 11.8858C15.9358 12.1241 15.8758 12.3887 15.8758 12.6672C15.8758 13.7151 16.7253 14.5646 17.7731 14.5646C18.821 14.5646 19.6705 13.7151 19.6705 12.6672C19.6705 11.6194 18.821 10.7699 17.7731 10.7699C17.5695 10.7699 17.3734 10.802 17.1895 10.8613L14.3122 7.9841C14.3673 7.80642 14.397 7.61749 14.397 7.42169C14.397 6.37381 13.5475 5.52435 12.4997 5.52435C12.3039 5.52435 12.115 5.55402 11.9372 5.6091L9.06153 2.7334Z" fill="black"/>
</svg>
