<svg width="25" height="25" viewBox="0 0 25 25" fill="none" xmlns="http://www.w3.org/2000/svg">
<path d="M0 0H25V25H0V0Z" fill="white"/>
<path d="M6.5734 20.8917L8.48658 19.7339C8.85567 20.3883 9.19142 20.942 9.99678 20.942C10.7688 20.942 11.2555 20.64 11.2555 19.4654V11.4773H13.6048V19.4986C13.6048 21.9319 12.1785 23.0395 10.0975 23.0395C8.21809 23.0395 7.12713 22.0661 6.57336 20.8915" fill="black"/>
<path d="M14.881 20.64L16.7939 19.5324C17.2975 20.3548 17.952 20.9589 19.1098 20.9589C20.0833 20.9589 20.704 20.4722 20.704 19.8009C20.704 18.9954 20.0664 18.7101 18.9923 18.2404L18.4051 17.9885C16.7101 17.267 15.5857 16.3608 15.5857 14.4477C15.5857 12.6856 16.9282 11.343 19.026 11.343C20.5196 11.343 21.5936 11.8633 22.3654 13.2226L20.5362 14.3973C20.1334 13.6757 19.6973 13.3905 19.026 13.3905C18.338 13.3905 17.9016 13.8268 17.9016 14.3973C17.9016 15.1021 18.338 15.3875 19.3448 15.8238L19.9321 16.0755C21.9291 16.9314 23.0535 17.804 23.0535 19.7673C23.0535 21.8819 21.3921 23.0398 19.1602 23.0398C16.9786 23.0398 15.5689 21.9994 14.881 20.64Z" fill="black"/>
</svg>
