<svg width="14" height="29" viewBox="0 0 14 29" fill="none" xmlns="http://www.w3.org/2000/svg">
<path d="M6.32798 21.4478C6.32798 21.4478 6.32798 11.4288 6.66062 11.4298C6.91784 11.4298 7.25242 24.3536 7.25242 24.3536C6.79213 24.2995 6.32798 22.2272 6.32798 21.4478ZM12.7759 11.5458C11.8872 7.66242 9.94065 4.32341 7.25629 1.74638L7.24952 1.74058C6.92267 1.24161 6.62387 0.669156 6.38406 0.0657552L6.36085 0C6.36182 0.0193398 6.36182 0.0425475 6.36182 0.0657552C6.36182 0.612104 6.11717 1.10043 5.73134 1.42824L5.72844 1.43018C2.27242 4.36402 0.0734906 8.68743 0.000966458 13.5253V13.5378C-5.31229e-07 13.5978 0 13.6684 0 13.739C0 18.5323 2.30627 22.7871 5.86962 25.454L5.90733 25.4811L5.99146 25.542C6.14683 26.6921 6.27963 27.8448 6.38986 29H6.97102C7.13154 27.5582 7.34815 26.2963 7.63148 25.0586L7.58699 25.2897C7.96992 25.0237 8.3045 24.7481 8.61684 24.4493L8.61394 24.4522C11.3225 21.941 13.0128 18.3631 13.0128 14.3917C13.0128 14.3327 13.0128 14.2747 13.0118 14.2157V14.2244C13.0089 13.2758 12.9228 12.3484 12.7594 11.4482L12.7739 11.5439L12.7759 11.5458Z" fill="white"/>
</svg>
