<svg width="22" height="19" viewBox="0 0 22 19" fill="none" xmlns="http://www.w3.org/2000/svg">
<mask id="mask0_312_76" style="mask-type:luminance" maskUnits="userSpaceOnUse" x="0" y="0" width="22" height="19">
<path d="M21.5919 0H0V19H21.5919V0Z" fill="white"/>
</mask>
<g mask="url(#mask0_312_76)">
<path d="M5.83533 15.8652H5.63145L4.61377 14.8475V14.6437L6.16955 13.0879H7.24739L7.39109 13.2316V14.3094L5.83533 15.8652Z" fill="white"/>
<path d="M4.61377 4.35486V4.15099L5.63145 3.1333H5.83533L7.39109 4.68906V5.7669L7.24739 5.91062H6.16955L4.61377 4.35486Z" fill="white"/>
<path d="M13.5724 12.5849H12.0918L11.9681 12.4612V8.99541C11.9681 8.37879 11.7258 7.90085 10.9822 7.88415C10.5995 7.87412 10.1617 7.88415 9.69383 7.90252L9.62364 7.97439V12.4595L9.49998 12.5832H8.01942L7.89575 12.4595V6.53895L8.01942 6.41528H11.3515C12.6466 6.41528 13.696 7.46472 13.696 8.75979V12.4612L13.5724 12.5849Z" fill="white"/>
<path d="M6.04593 10.3658H0.123659L0 10.2421V8.75819L0.123659 8.63452H6.04593L6.16959 8.75819V10.2421L6.04593 10.3658Z" fill="white"/>
<path d="M21.4699 10.3658H15.5476L15.424 10.2421V8.75819L15.5476 8.63452H21.4699L21.5936 8.75819V10.2421L21.4699 10.3658Z" fill="white"/>
<path d="M9.94287 4.56536V0.123659L10.0665 0H11.5504L11.6741 0.123659V4.56536L11.5504 4.68901H10.0665L9.94287 4.56536Z" fill="white"/>
<path d="M9.94287 18.8764V14.4347L10.0665 14.311H11.5504L11.6741 14.4347V18.8764L11.5504 19H10.0665L9.94287 18.8764Z" fill="white"/>
</g>
</svg>
