<svg width="21" height="21" viewBox="0 0 21 21" fill="none" xmlns="http://www.w3.org/2000/svg">
<mask id="mask0_312_22" style="mask-type:luminance" maskUnits="userSpaceOnUse" x="0" y="0" width="21" height="21">
<path d="M21 0H0V21H21V0Z" fill="white"/>
</mask>
<g mask="url(#mask0_312_22)">
<path d="M9.81234 0.005652C9.76719 0.00975756 9.62342 0.0241271 9.4941 0.034391C6.51143 0.303306 3.71759 1.91269 1.94809 4.3863C0.962754 5.76166 0.332552 7.32178 0.0944283 8.97426C0.0102639 9.55115 0 9.72151 0 10.5036C0 11.2857 0.0102639 11.4561 0.0944283 12.0329C0.665102 15.9764 3.47127 19.2895 7.27713 20.5171C7.95865 20.7367 8.67713 20.8866 9.4941 20.9769C9.81234 21.0118 11.1877 21.0118 11.5059 20.9769C12.9161 20.8209 14.1109 20.4719 15.2891 19.8705C15.4698 19.7781 15.5046 19.7535 15.4801 19.7329C15.4636 19.7206 14.6939 18.6881 13.77 17.44L12.0909 15.1716L9.98681 12.0576C8.82901 10.3456 7.87654 8.94556 7.86833 8.94556C7.86012 8.94346 7.85191 10.3271 7.8478 12.0165C7.84165 14.9746 7.83959 15.0937 7.80264 15.1634C7.74927 15.264 7.70821 15.3051 7.62199 15.3502C7.55631 15.3831 7.49883 15.3892 7.18886 15.3892H6.83372L6.73929 15.3297C6.67771 15.2907 6.63255 15.2393 6.60176 15.1798L6.55865 15.0874L6.56275 10.9716L6.56891 6.85374L6.63255 6.77369C6.6654 6.73058 6.73519 6.67516 6.78446 6.64847C6.86862 6.60741 6.90147 6.60331 7.25659 6.60331C7.67537 6.60331 7.74516 6.61972 7.85396 6.73879C7.88475 6.77163 9.02405 8.48776 10.3871 10.5549C11.7501 12.622 13.614 15.4446 14.5296 16.8303L16.1924 19.349L16.2766 19.2937C17.0217 18.8092 17.81 18.1194 18.434 17.4009C19.7621 15.8757 20.6181 14.0159 20.9056 12.0329C20.9898 11.4561 21 11.2857 21 10.5036C21 9.72151 20.9898 9.55115 20.9056 8.97426C20.3349 5.03087 17.5287 1.71768 13.7229 0.490109C13.0516 0.272514 12.3372 0.122661 11.5367 0.0323382C11.3396 0.0118104 9.9827 -0.0107703 9.81234 0.005652ZM14.1109 6.35697C14.2094 6.40624 14.2894 6.50066 14.3181 6.5992C14.3346 6.65257 14.3387 7.79392 14.3346 10.366L14.3285 14.057L13.6777 13.0593L13.0249 12.0617V9.37869C13.0249 7.64407 13.0331 6.669 13.0455 6.62178C13.0783 6.50682 13.1501 6.41651 13.2486 6.36313C13.3328 6.32002 13.3636 6.31592 13.686 6.31592C13.9898 6.31592 14.0431 6.32002 14.1109 6.35697Z" fill="#F6F6F6"/>
</g>
</svg>
