<svg width="24" height="26" viewBox="0 0 24 26" fill="none" xmlns="http://www.w3.org/2000/svg">
<path d="M12.5765 0.277385C11.9466 -0.0932921 11.1254 -0.09163 10.495 0.277385C7.3377 2.10068 4.18031 3.92453 1.02241 5.74699C0.407921 6.08526 -0.00653307 6.77577 7.79556e-05 7.49246V18.509C-0.00435897 19.2397 0.431463 19.9369 1.0618 20.2705C1.96885 20.7755 2.8501 21.3317 3.77355 21.8031C4.84025 22.3516 6.17481 22.4728 7.25455 21.9008C8.13102 21.4268 8.52032 20.3724 8.51916 19.4034C8.52626 15.7677 8.52032 12.1319 8.52192 8.49606C8.54277 8.33449 8.42679 8.16178 8.25836 8.16568C7.85487 8.15899 7.45084 8.16178 7.04735 8.16456C6.89489 8.14952 6.74608 8.28203 6.75762 8.44239C6.7522 12.0547 6.75868 15.6682 6.75433 19.2811C6.76312 19.7808 6.44046 20.2611 5.9802 20.4299C4.91718 20.8198 1.88301 18.7583 1.88301 18.7583C1.77166 18.7043 1.70096 18.5779 1.71187 18.4524C1.71187 14.8178 1.71241 11.1831 1.71187 7.54901C1.69656 7.40249 1.78286 7.27054 1.91144 7.21072C5.05839 5.39816 8.2037 3.58108 11.3506 1.76741C11.46 1.69107 11.6123 1.6913 11.7214 1.76797C14.8683 3.58108 18.0142 5.3965 21.1617 7.20914C21.2907 7.26886 21.3733 7.40304 21.3602 7.54901C21.3596 11.1831 21.3612 14.8178 21.3591 18.4519C21.3684 18.5805 21.3049 18.7052 21.1901 18.7616C18.0726 20.5643 14.9195 22.3089 11.8302 24.164C11.6954 24.2449 11.5427 24.3366 11.3916 24.2474C10.5792 23.7772 9.77668 23.2887 8.96694 22.8139C8.87891 22.7564 8.76683 22.7317 8.67499 22.7961C8.31196 22.9963 7.97049 23.1584 7.5536 23.3311C6.9681 23.5737 7.06163 23.6728 7.58972 23.9948C8.53665 24.5555 9.48517 25.1141 10.4321 25.6754C11.0555 26.0825 11.8931 26.1114 12.5365 25.7353C15.6944 23.9143 18.8513 22.0911 22.0097 20.2701C22.6384 19.9346 23.0764 19.2402 23.0719 18.5089V7.49246C23.0781 6.79031 22.6794 6.11211 22.0835 5.76884C18.9151 3.93666 15.7453 2.10845 12.5765 0.277385Z" fill="white"/>
<path d="M17.3412 8.54857C16.1018 7.85474 14.6273 7.81778 13.25 7.9085C12.255 8.01139 11.2085 8.29869 10.4836 9.04508C9.74002 9.79536 9.57816 11.007 9.93134 11.9864C10.1844 12.6786 10.8215 13.1287 11.4803 13.3667C12.3289 13.6802 13.2202 13.7772 14.1117 13.8741C14.9249 13.9625 15.7384 14.051 16.52 14.3039C16.8393 14.4145 17.2111 14.5839 17.3089 14.9475C17.3992 15.3779 17.3002 15.8783 16.9662 16.1774C15.9052 17.0561 12.9539 16.9215 11.9057 16.2299C11.4819 15.9353 11.2992 15.4137 11.225 14.9166C11.2167 14.7617 11.0975 14.6197 10.9368 14.6315C10.5344 14.6264 10.132 14.6276 9.72955 14.6309C9.58916 14.6185 9.44319 14.7231 9.43547 14.8731C9.35276 17.1497 11.3509 18.1421 13.2255 18.3606C14.2965 18.4674 15.391 18.4613 16.4456 18.2208C17.2384 18.0319 18.0333 17.684 18.5791 17.0451C19.2521 16.2685 19.3844 15.1124 19.0826 14.1451C18.8519 13.4233 18.1925 12.9603 17.5184 12.7221C16.6017 12.3932 15.5154 12.2164 14.6851 12.1337C13.4784 12.0134 12.0444 12.0626 11.7028 11.2328C11.5666 10.7983 11.6825 10.2588 12.0641 9.99157C13.0737 9.27499 15.1284 9.37017 16.1739 9.90549C16.654 10.157 16.9322 10.6737 17.047 11.1953C17.0683 11.3485 17.1668 11.5084 17.3363 11.5017C17.736 11.5101 18.1357 11.5039 18.5352 11.5045C18.6725 11.5145 18.8228 11.4335 18.8496 11.2864C18.8327 10.1962 18.3007 9.08027 17.3412 8.54857Z" fill="white"/>
</svg>
