<svg width="20" height="20" viewBox="0 0 20 20" fill="none" xmlns="http://www.w3.org/2000/svg">
<path d="M14.9953 5.85769C14.9888 5.95941 14.9415 6.04931 14.87 6.11166L14.8693 6.11231C14.7833 6.20616 14.6685 6.27178 14.5386 6.29475L14.5353 6.29541C14.5169 6.29803 14.4953 6.3 14.4736 6.3C14.4729 6.3 14.4716 6.3 14.471 6.3C14.2662 6.3 14.0903 6.17597 14.0155 5.99812L14.0142 5.99484C13.9945 5.84981 14.2308 5.74022 14.4742 5.70609C14.7177 5.67197 14.9756 5.71331 14.9953 5.85769ZM8.49188 6.195C8.41247 6.39909 8.21756 6.5415 7.98919 6.5415C7.98656 6.5415 7.98459 6.5415 7.98197 6.5415H7.98263C7.959 6.5415 7.93669 6.53953 7.91372 6.53691H7.91634C7.74506 6.50606 7.59938 6.41156 7.50291 6.27966L7.50159 6.27769C7.44778 6.216 7.41497 6.13397 7.41497 6.04537V6.04472C7.42284 5.99419 7.45106 5.95088 7.49044 5.92331L7.49109 5.92266C7.59084 5.86753 7.71028 5.83538 7.83759 5.83538C7.89206 5.83538 7.94522 5.84128 7.99641 5.85244L7.99181 5.85178C8.25103 5.88787 8.51878 6.01059 8.49319 6.195H8.49188ZM15.7224 11.2107L15.6522 11.1228L15.6233 11.0867C15.9233 10.5315 16.0991 9.87066 16.0991 9.16978C16.0991 8.84953 16.0624 8.53847 15.9928 8.23922L15.9981 8.26678C15.9521 7.9695 15.9252 7.62628 15.9252 7.27716C15.9252 7.27256 15.9252 7.26797 15.9252 7.26337C15.9403 6.93459 15.9751 6.62747 16.0289 6.32625L16.0223 6.36956C16.0808 6.06506 16.1142 5.71462 16.1142 5.35631C16.1142 5.32284 16.1142 5.29003 16.1136 5.25722V5.26247C16.1214 5.23031 16.126 5.19422 16.126 5.15616C16.126 5.13844 16.1247 5.12137 16.1234 5.10431V5.10628C15.8609 4.06941 15.3681 3.171 14.7007 2.43337L14.7053 2.43862C14.1074 1.73775 13.3724 1.17272 12.5396 0.782906L12.5003 0.7665C12.957 0.668719 13.482 0.612938 14.0201 0.612938C14.0693 0.612938 14.1186 0.613594 14.1678 0.61425H14.1606C14.1901 0.613594 14.2242 0.612938 14.259 0.612938C15.8196 0.612938 17.2095 1.34072 18.1086 2.47538L18.1164 2.48587C18.1348 2.5095 18.1532 2.53641 18.1689 2.56462L18.1709 2.56791C18.7642 3.67959 17.9445 7.71422 15.7218 11.212L15.7224 11.2107ZM15.5348 5.45934C15.5243 5.75794 15.4927 6.04078 15.4429 6.31706L15.4481 6.28097C15.3969 6.55988 15.3602 6.89194 15.3451 7.22925L15.3444 7.24566C15.3444 7.25681 15.3444 7.26928 15.3444 7.28241C15.3444 7.6545 15.372 8.02003 15.4258 8.37703L15.4206 8.337C15.4763 8.58441 15.5085 8.86791 15.5085 9.15994C15.5085 9.66066 15.414 10.1397 15.2414 10.5787L15.2506 10.5525C15.2007 10.4665 15.1489 10.3628 15.1036 10.2552L15.0964 10.2362C15.0531 10.1318 14.9592 9.96319 14.8299 9.73088C14.3253 8.82525 13.1427 6.70491 13.7478 5.83997C14.0588 5.39503 14.8477 5.376 15.5341 5.46L15.5348 5.45934ZM15.0682 13.062C15.0347 12.3802 15.2887 12.3086 15.5577 12.2332C15.5949 12.2231 15.6319 12.2119 15.6686 12.1997C15.7014 12.2286 15.7375 12.2568 15.7749 12.2817L15.7782 12.2837C16.1851 12.4628 16.6589 12.5665 17.1577 12.5665C17.5462 12.5665 17.9196 12.5035 18.2687 12.3867L18.2438 12.3939C18.018 12.5862 17.7607 12.7509 17.4825 12.8783L17.4622 12.8868C17.0395 13.06 16.5493 13.1683 16.0361 13.1847H16.0296C15.9515 13.1965 15.8616 13.2037 15.7703 13.2037C15.517 13.2037 15.2755 13.1512 15.057 13.0567L15.0688 13.0613L15.0682 13.062ZM14.3377 14.3916C14.324 14.5366 14.3082 14.7 14.2872 14.8805L14.1678 15.2401C14.1586 15.2663 14.1533 15.2965 14.1527 15.328C14.1533 15.3458 14.1533 15.3661 14.1533 15.3864C14.1533 15.6194 14.1186 15.8452 14.0543 16.0571L14.0582 16.0407C13.9821 16.296 13.9296 16.592 13.9118 16.8971L13.9112 16.9076C13.8771 18.0127 13.022 18.9072 11.9372 19.0037L11.9287 19.0043C10.6857 19.2708 10.4652 18.5968 10.271 18.0022C10.2513 17.9401 10.2303 17.8782 10.208 17.8165C10.103 17.3887 10.0426 16.8971 10.0426 16.3918C10.0426 16.1556 10.0557 15.9226 10.0813 15.6929L10.0787 15.7211C10.0826 15.6371 10.0846 15.538 10.0846 15.4389C10.0846 14.7656 9.98353 14.1159 9.79519 13.5043L9.80766 13.5509C9.81116 13.3103 9.81641 13.0666 9.82341 12.8198C9.82341 12.8179 9.82341 12.8146 9.82341 12.812C9.82341 12.7818 9.81881 12.7529 9.81028 12.7253L9.81094 12.7273C9.80175 12.6617 9.78928 12.6039 9.77288 12.5482L9.77484 12.5567C9.68231 12.2148 9.44934 11.9392 9.14222 11.7928L9.135 11.7895C9.0195 11.7318 8.883 11.6977 8.73797 11.6977C8.66972 11.6977 8.60344 11.7049 8.53978 11.7193L8.54569 11.718C8.62969 11.4096 8.71631 11.1576 8.81606 10.9121L8.799 10.96L8.84231 10.8439C8.89087 10.7126 8.95191 10.5768 9.01688 10.4331C9.37519 9.69544 9.58453 8.82853 9.58453 7.91241C9.58453 7.29684 9.49003 6.70359 9.31481 6.14578L9.32597 6.18712C9.20588 5.46 8.58113 4.91203 7.82906 4.91203C7.71094 4.91203 7.59544 4.92581 7.48519 4.95141L7.49569 4.94944C6.97331 5.01769 6.50081 5.17125 6.07097 5.397L6.09394 5.38584C6.03969 5.41341 5.98609 5.44184 5.93316 5.47116C5.99288 4.06219 6.52116 2.78709 7.36444 1.78631L7.35656 1.7955C7.434 1.71741 7.51537 1.64325 7.59937 1.57369L7.60528 1.56909C7.65056 1.55991 7.69059 1.54153 7.72472 1.51594L7.72406 1.51659C8.31009 1.08741 9.04575 0.8295 9.84178 0.8295C9.90544 0.8295 9.96844 0.830812 10.0308 0.834094L10.0222 0.833437C10.3674 0.838687 10.7008 0.862313 11.0289 0.904313L10.985 0.899719C12.3257 1.15763 13.4702 1.85981 14.2872 2.84419L14.2944 2.85337C14.7853 3.42366 15.183 4.09172 15.4534 4.82081L15.4678 4.86609C15.2992 4.82081 15.1056 4.79456 14.9061 4.79456C14.261 4.79456 13.6802 5.06756 13.272 5.50397L13.2707 5.50528C12.4569 6.66881 13.7163 8.92762 14.3213 10.0131C14.4322 10.2119 14.5281 10.3838 14.5583 10.4567C14.7289 10.8511 14.9435 11.1904 15.2014 11.4916L15.1968 11.4863C15.2539 11.5579 15.309 11.6268 15.3517 11.6872C15.0229 11.7817 14.4322 12.0008 14.4861 13.0955C14.4762 13.2234 14.4513 13.4617 14.4178 13.7635C14.3824 13.9401 14.3535 14.1553 14.3371 14.3738L14.3358 14.3922L14.3377 14.3916ZM8.29894 10.6417L8.25562 10.7573C8.16572 10.9725 8.07253 11.2462 7.99509 11.5264L7.98263 11.5795C7.39659 11.571 6.87028 11.3203 6.49884 10.9226L6.49753 10.9213C6.08278 10.4836 5.82816 9.891 5.82816 9.23869C5.82816 9.10875 5.838 8.98144 5.85769 8.85675L5.85572 8.87053C5.91938 8.39803 5.95613 7.85269 5.95613 7.29816C5.95613 6.96872 5.943 6.64256 5.91806 6.31969L5.92069 6.36234C5.91675 6.29212 5.91281 6.23044 5.91084 6.18188C6.43912 5.78091 7.10784 5.53875 7.833 5.53875C7.91962 5.53875 8.00494 5.54203 8.08959 5.54859L8.07844 5.54794C8.442 5.63259 8.71566 5.93381 8.75897 6.30459L8.75963 6.30853C8.91581 6.78628 9.00572 7.33622 9.00572 7.9065C9.00572 8.73731 8.81475 9.5235 8.47481 10.2244L8.48859 10.1929C8.41969 10.3458 8.35472 10.4902 8.29894 10.6404V10.6417ZM6.58153 13.9125C6.447 13.8784 6.32888 13.8285 6.22125 13.7635L6.22716 13.7668C6.34003 13.7189 6.47325 13.6789 6.61106 13.6533L6.62353 13.6513C7.67616 13.4348 7.83825 13.2818 8.19328 12.831C8.27466 12.728 8.36653 12.6105 8.4945 12.4681C8.52075 12.4386 8.54175 12.4031 8.55422 12.3638L8.55488 12.3618C8.69466 12.2377 8.778 12.2719 8.91319 12.3277C9.06216 12.4097 9.17241 12.5482 9.21506 12.7129L9.21572 12.7175C9.23081 12.7601 9.24 12.8087 9.24 12.8599C9.24 12.9419 9.21703 13.0187 9.17766 13.0837L9.17897 13.0817C8.75569 13.6605 8.07909 14.0326 7.31588 14.0326C7.05338 14.0326 6.80072 13.9886 6.56513 13.9072L6.58153 13.9125ZM1.65506 9.74072C1.22784 8.43806 0.880031 6.89259 0.674625 5.30184L0.660844 5.17125C0.620812 4.95994 0.5985 4.71647 0.5985 4.46841C0.5985 3.28322 1.11628 2.21944 1.93791 1.491L1.94184 1.48772C3.44794 0.422625 5.91084 1.04409 6.951 1.38075L6.94312 1.38862C5.93578 2.61712 5.32481 4.20525 5.32481 5.93512C5.32481 5.99419 5.32547 6.05325 5.32678 6.11231V6.10378C5.32678 6.17137 5.33203 6.26719 5.33991 6.39844C5.36156 6.6675 5.37403 6.98119 5.37403 7.29816C5.37403 7.82447 5.33991 8.34291 5.27297 8.8515L5.27953 8.79178C5.25788 8.92697 5.24606 9.08316 5.24606 9.24197C5.24606 10.0498 5.56238 10.7842 6.07884 11.3269L6.07753 11.3256C6.14359 11.3947 6.2125 11.4597 6.28425 11.5205C6.00009 11.825 5.38191 12.4983 4.72434 13.2897C4.25906 13.8495 3.9375 13.7419 3.83184 13.7071C3.38231 13.4656 3.02991 13.0909 2.82253 12.6368L2.81662 12.6223C2.36775 11.8007 1.97269 10.8452 1.68131 9.84506L1.65572 9.74203L1.65506 9.74072ZM19.0312 12.075C19.0188 12.0376 19.003 12.0054 18.984 11.9759L18.9853 11.9779C18.8711 11.762 18.5942 11.6977 18.1591 11.7876C16.8033 12.0671 16.2783 11.8952 16.088 11.7718C17.1491 10.1627 18.0029 8.29894 18.5496 6.30787L18.5817 6.17072C18.8042 5.30906 19.236 3.28125 18.6821 2.29031C18.6434 2.21681 18.6021 2.15381 18.5561 2.09475L18.5581 2.09737C17.5324 0.814406 15.9672 0 14.2118 0C14.1619 0 14.112 0.000656264 14.0628 0.00196876H14.07C14.0424 0.00131251 14.0103 0.00131248 13.9775 0.00131248C13.0968 0.00131248 12.2496 0.145687 11.4588 0.411469L11.5146 0.395062C11.3741 0.368812 11.233 0.3465 11.0913 0.328125C10.771 0.267094 10.4003 0.229031 10.0209 0.223125H10.0157C9.96122 0.2205 9.89756 0.219187 9.83325 0.219187C8.97028 0.219187 8.16769 0.47775 7.49897 0.922031L7.51472 0.912187C6.81188 0.649031 3.58772 -0.437063 1.59206 0.9765C0.614906 1.80994 0 3.04172 0 4.41788C0 4.68366 0.0229687 4.94419 0.0669375 5.1975L0.063 5.17059C0.282844 6.94116 0.639844 8.53453 1.134 10.0669L1.08216 9.8805C1.40569 11.0066 1.806 11.9812 2.29753 12.8993L2.2575 12.8179C2.54166 13.4636 3.03319 13.9755 3.64612 14.278L3.66319 14.2859C3.77344 14.3181 3.90009 14.3371 4.03134 14.3371C4.51828 14.3371 4.94484 14.0805 5.18372 13.6946L5.187 13.6887C5.84391 12.8986 6.49097 12.1912 6.78169 11.8788C7.11113 12.0619 7.50159 12.1748 7.91766 12.1879H7.92159L7.92225 12.1912C7.85313 12.2734 7.78553 12.357 7.71947 12.4418C7.44122 12.7949 7.38347 12.8677 6.489 13.0522C6.23438 13.1047 5.55844 13.2438 5.54859 13.7176C5.54859 13.7202 5.54859 13.7228 5.54859 13.7261C5.54859 13.8226 5.57681 13.9125 5.62538 13.988L5.62406 13.986C5.82881 14.2452 6.11691 14.4309 6.447 14.5031L6.45684 14.5051C6.71869 14.5904 7.02056 14.6396 7.33294 14.6396C8.05481 14.6396 8.715 14.3784 9.22556 13.9453L9.22163 13.9486C9.20588 14.2229 9.19734 14.5445 9.19734 14.868C9.19734 16.0184 9.30956 17.1432 9.52284 18.2313L9.50513 18.1217C9.75581 19.0227 10.5656 19.675 11.529 19.6836H11.5303C11.7725 19.6816 12.0067 19.6534 12.2325 19.6022L12.2108 19.6061C13.4702 19.4939 14.4624 18.4872 14.5517 17.2312L14.5523 17.2233C14.6757 16.5093 14.8818 14.8654 14.994 13.86C14.9992 13.8173 15.0163 13.7793 15.0413 13.7478L15.0406 13.7484C15.0413 13.7478 15.0977 13.7097 15.391 13.7734L15.4271 13.7793L15.6352 13.7977L15.6476 13.7983C15.71 13.8009 15.7835 13.8029 15.857 13.8029C16.529 13.8029 17.1708 13.6717 17.7568 13.4328L17.7233 13.4446C18.2516 13.1998 19.2038 12.598 19.0312 12.075Z" fill="#F6F6F6"/>
</svg>
