<svg width="20" height="24" viewBox="0 0 20 24" fill="none" xmlns="http://www.w3.org/2000/svg">
<path fill-rule="evenodd" clip-rule="evenodd" d="M18.0083 19.0364L7.16474 22.2226C7.08919 22.2452 7.00899 22.2481 6.93198 22.231C6.85496 22.2139 6.78376 22.1774 6.72533 22.1251C6.6669 22.0728 6.62323 22.0064 6.5986 21.9325C6.57397 21.8585 6.5692 21.7796 6.58478 21.7033L10.4593 3.26898C10.4757 3.19368 10.5156 3.12533 10.5734 3.07353C10.6313 3.02174 10.7041 2.98911 10.7817 2.98022C10.8593 2.97133 10.9378 2.98663 11.0062 3.02398C11.0745 3.06132 11.1293 3.11883 11.1627 3.18842L18.3353 18.3234C18.3674 18.3907 18.3844 18.4641 18.385 18.5385C18.3856 18.6128 18.3698 18.6865 18.3387 18.7543C18.3076 18.822 18.262 18.8824 18.205 18.9311C18.1479 18.9798 18.0808 19.0157 18.0083 19.0364ZM19.8682 18.284L11.5653 0.759763C11.4633 0.543616 11.3034 0.358961 11.1028 0.225639C10.9023 0.0923172 10.6687 0.0153669 10.4271 0.00305639C10.1855 -0.0133202 9.94405 0.0363417 9.72926 0.146571C9.51448 0.256801 9.33473 0.423322 9.20982 0.627789L0.206085 15.1269C0.0687362 15.3464 -0.00269245 15.5997 7.76152e-05 15.8576C0.00284768 16.1154 0.0797032 16.3672 0.221736 16.5838L4.62491 23.3615C4.79083 23.6148 5.03554 23.8084 5.32239 23.9131C5.60924 24.0178 5.9228 24.0282 6.21611 23.9426L18.9978 20.1865C19.1909 20.131 19.3695 20.035 19.5212 19.9051C19.673 19.7751 19.7944 19.6142 19.8771 19.4336C19.9597 19.2529 20.0016 19.0568 20 18.8586C19.9983 18.6604 19.953 18.465 19.8674 18.2857L19.8682 18.284Z" fill="#F6F6F6"/>
</svg>
