<svg width="22" height="22" viewBox="0 0 22 22" fill="none" xmlns="http://www.w3.org/2000/svg">
<path d="M10.4977 0C5.12898 0 5.46375 2.32685 5.46375 2.32685L5.46788 4.74048H10.5927V5.46375H3.43448C3.43448 5.46375 0 5.07525 0 10.4935C0 15.9118 3.00052 15.7176 3.00052 15.7176H4.79008V13.2048C4.79008 13.2048 4.69502 10.2042 7.741 10.2042H12.8245C12.8245 10.2042 15.6804 10.2497 15.6804 7.44343V2.80627C15.6804 2.80627 16.1102 0 10.4977 0ZM7.67487 1.62425C8.18323 1.62425 8.59652 2.03754 8.59652 2.54589C8.59652 3.05424 8.18323 3.46754 7.67487 3.46754C7.16652 3.46754 6.75323 3.05424 6.75323 2.54589C6.75323 2.03754 7.16239 1.62425 7.67487 1.62425ZM10.6506 21.0408C16.0193 21.0408 15.6845 18.714 15.6845 18.714L15.6804 16.3003H10.5555V15.5771H17.7138C17.7138 15.5771 21.1483 15.9656 21.1483 10.5473C21.1483 5.12898 18.1477 5.32323 18.1477 5.32323H16.3582V7.83606C16.3582 7.83606 16.4532 10.8366 13.4073 10.8366H8.32375C8.32375 10.8366 5.46788 10.7911 5.46788 13.5974V18.2345C5.46788 18.2345 5.04219 21.0408 10.6506 21.0408ZM13.4775 19.4166C12.9692 19.4166 12.5559 19.0033 12.5559 18.4949C12.5559 17.9866 12.9692 17.5733 13.4775 17.5733C13.9859 17.5733 14.3992 17.9866 14.3992 18.4949C14.3992 19.0074 13.9859 19.4166 13.4775 19.4166Z" fill="white"/>
</svg>
