<svg width="24" height="21" viewBox="0 0 24 21" fill="none" xmlns="http://www.w3.org/2000/svg">
<path d="M19.4064 6.80649C19.1616 6.72221 18.9079 6.64247 18.6466 6.56706C18.6896 6.39182 18.729 6.21886 18.764 6.04883C19.3392 3.25693 18.9631 1.00776 17.679 0.267239C16.4477 -0.442824 14.4339 0.297531 12.4002 2.06746C12.2046 2.23765 12.0085 2.41785 11.8124 2.6067C11.6818 2.48175 11.5514 2.361 11.4213 2.24551C9.28989 0.352988 7.15344 -0.444547 5.87057 0.298119C4.64043 1.01024 4.27613 3.12468 4.79386 5.77058C4.84386 6.02614 4.9023 6.28713 4.96838 6.55248C4.66602 6.63831 4.37411 6.72982 4.09481 6.82716C1.59591 7.69839 0 9.06381 0 10.4801C0 11.9429 1.71321 13.4101 4.316 14.2997C4.52141 14.3699 4.73454 14.4363 4.95418 14.4993C4.88289 14.7863 4.82088 15.0675 4.76882 15.3418C4.27517 17.9418 4.66068 20.0063 5.88755 20.7139C7.15479 21.4447 9.28157 20.6935 11.3525 18.8833C11.5162 18.7402 11.6805 18.5884 11.845 18.4294C12.0583 18.6348 12.2713 18.8292 12.4831 19.0115C14.4891 20.7377 16.4703 21.4347 17.696 20.7251C18.962 19.9923 19.3735 17.7745 18.8393 15.0763C18.7985 14.8702 18.751 14.6597 18.6977 14.4454C18.8471 14.4012 18.9937 14.3557 19.1367 14.3083C21.8425 13.4117 23.603 11.9624 23.603 10.4801C23.603 9.05869 21.9557 7.68406 19.4064 6.80649ZM18.8196 13.3512C18.6905 13.3939 18.5581 13.4352 18.4231 13.4752C18.1244 12.5296 17.7212 11.524 17.2279 10.485C17.6987 9.47084 18.0863 8.47811 18.3766 7.53857C18.6181 7.60844 18.8524 7.68213 19.0782 7.7599C21.2624 8.5118 22.5947 9.62351 22.5947 10.4801C22.5947 11.3926 21.1559 12.577 18.8196 13.3512ZM17.8501 15.2721C18.0863 16.4652 18.1201 17.5439 17.9636 18.3872C17.823 19.145 17.5403 19.6502 17.1908 19.8525C16.4469 20.2831 14.8562 19.7234 13.1407 18.2472C12.9441 18.0779 12.746 17.8972 12.5473 17.706C13.2123 16.9786 13.877 16.133 14.5257 15.1939C15.6668 15.0927 16.7448 14.9271 17.7224 14.7011C17.7705 14.8954 17.8133 15.0858 17.8501 15.2721ZM8.04681 19.7781C7.32007 20.0348 6.74125 20.0421 6.39137 19.8404C5.64685 19.411 5.33734 17.7534 5.75953 15.5299C5.80789 15.2752 5.86545 15.0137 5.93179 14.7463C6.89868 14.9601 7.96879 15.114 9.11256 15.2067C9.76565 16.1256 10.4495 16.9703 11.1387 17.7099C10.9881 17.8553 10.8382 17.9937 10.689 18.1241C9.77325 18.9245 8.85556 19.4925 8.04681 19.7781ZM4.64211 13.3456C3.4912 12.9522 2.54074 12.441 1.88924 11.8831C1.30383 11.3817 1.00827 10.884 1.00827 10.4801C1.00827 9.62066 2.28963 8.52441 4.42671 7.77931C4.68601 7.68889 4.95746 7.60369 5.23916 7.52366C5.53451 8.48441 5.92196 9.4889 6.38952 10.5047C5.91591 11.5355 5.52296 12.556 5.22471 13.528C5.02388 13.4703 4.82932 13.4095 4.64211 13.3456ZM5.7834 5.57694C5.33982 3.31 5.63442 1.59989 6.37574 1.17077C7.16537 0.713628 8.91148 1.36542 10.7518 2.99952C10.8695 3.10396 10.9876 3.21328 11.106 3.32638C10.4202 4.06274 9.74258 4.90107 9.09529 5.81461C7.98522 5.9175 6.92262 6.08278 5.94565 6.3041C5.88423 6.05702 5.82982 5.81427 5.7834 5.57694ZM15.9647 8.09096C15.7311 7.68755 15.4914 7.29368 15.2469 6.91056C16 7.00576 16.7215 7.13214 17.3991 7.28679C17.1957 7.93875 16.9422 8.62041 16.6437 9.31921C16.4296 8.91274 16.2031 8.5029 15.9647 8.09096ZM11.8128 4.04699C12.2779 4.55085 12.7436 5.11341 13.2017 5.72377C12.7401 5.70197 12.2727 5.69063 11.8015 5.69063C11.3348 5.69063 10.8708 5.70172 10.4121 5.72314C10.8706 5.11845 11.3404 4.55665 11.8128 4.04699ZM7.63428 8.09793C7.40098 8.50248 7.17874 8.91009 6.968 9.31846C6.67437 8.62209 6.42317 7.93732 6.21798 7.27612C6.89141 7.12541 7.60954 7.00219 8.35783 6.90879C8.10996 7.29544 7.86821 7.6923 7.63428 8.09793ZM8.37939 14.1234C7.60626 14.0371 6.87733 13.9202 6.20407 13.7737C6.41254 13.1007 6.66928 12.4013 6.96913 11.6899C7.18042 12.098 7.40355 12.5058 7.63827 12.9112C7.87737 13.3242 8.12512 13.7288 8.37939 14.1234ZM11.8407 16.9843C11.3628 16.4687 10.8861 15.8983 10.4205 15.2848C10.8725 15.3025 11.3332 15.3116 11.8015 15.3116C12.2826 15.3116 12.7582 15.3008 13.2263 15.2799C12.7667 15.9045 12.3026 16.4758 11.8407 16.9843ZM16.6533 11.6537C16.9688 12.3727 17.2347 13.0685 17.4459 13.73C16.7615 13.8861 16.0227 14.0119 15.2442 14.1053C15.4892 13.717 15.731 13.3164 15.9687 12.9043C16.2092 12.4873 16.4375 12.0698 16.6533 11.6537ZM15.0953 12.4005C14.7263 13.0403 14.3476 13.651 13.963 14.2274C13.2626 14.2775 12.539 14.3033 11.8015 14.3033C11.067 14.3033 10.3525 14.2805 9.66452 14.2358C9.26447 13.6518 8.87745 13.0393 8.51084 12.406C8.1452 11.7745 7.80876 11.1376 7.50383 10.5043C7.80868 9.86954 8.14432 9.23195 8.50786 8.60154L8.50778 8.60167C8.87228 7.96958 9.2559 7.36006 9.65226 6.77969C10.3542 6.72663 11.074 6.69894 11.8015 6.69894C12.5322 6.69894 13.253 6.72684 13.9547 6.78036C14.345 7.35649 14.7261 7.96404 15.092 8.59621C15.4621 9.23548 15.802 9.86883 16.1095 10.49C15.803 11.1218 15.4638 11.7616 15.0953 12.4005ZM17.1753 1.14078C17.9657 1.59658 18.2731 3.43482 17.7765 5.84532C17.7448 5.99913 17.7091 6.15579 17.6704 6.31456C16.6912 6.08862 15.6278 5.92048 14.5145 5.81603C13.866 4.89246 13.1939 4.05283 12.5193 3.32592C12.7006 3.15144 12.8818 2.98507 13.0621 2.82806C14.8047 1.3116 16.4333 0.712872 17.1753 1.14078ZM11.8015 8.37245C12.9655 8.37245 13.9092 9.31606 13.9092 10.4801C13.9092 11.6441 12.9655 12.5878 11.8015 12.5878C10.6375 12.5878 9.69385 11.6441 9.69385 10.4801C9.69385 9.31606 10.6375 8.37245 11.8015 8.37245Z" fill="white"/>
</svg>
