<svg width="20" height="23" viewBox="0 0 20 23" fill="none" xmlns="http://www.w3.org/2000/svg">
<path d="M9.8116 13.7339C9.41611 13.9156 8.98279 14.1524 8.11533 14.6285C7.78644 14.8135 7.44275 14.9985 7.1229 15.1728C7.1007 15.1506 7.07767 15.1226 7.05547 15.0996C5.33947 13.266 2.16564 11.971 2.30049 9.50841C2.35064 8.61135 2.65898 6.25647 8.39572 3.39673C13.117 1.06981 16.8738 1.71444 17.5225 3.14431C18.4549 5.18263 15.5089 8.9756 10.633 9.52567C10.0934 9.63513 9.53604 9.62191 9.00219 9.48699C8.46835 9.35207 7.97165 9.0989 7.54881 8.74619C7.29063 8.46581 7.25199 8.44937 7.15661 8.50528C6.99956 8.5875 7.1007 8.84157 7.15661 8.98711C7.3426 9.32385 7.59421 9.61989 7.89658 9.85771C8.19895 10.0955 8.54593 10.2703 8.91701 10.3718C10.8358 10.7865 12.8363 10.5883 14.6365 9.80523C17.5916 8.6615 19.8988 5.48192 19.2229 2.81624C18.5446 0.11355 14.0584 -0.777753 9.81407 0.730226C7.15601 1.62596 4.70021 3.03603 2.58663 4.88005C0.248189 7.06719 -0.121816 8.9682 0.0294749 9.76412C0.573794 12.5901 4.46954 14.4295 6.03179 15.7919C5.94957 15.8371 5.8805 15.8741 5.81883 15.9095C5.03935 16.2968 2.0678 17.85 1.32696 19.4928C0.485815 21.3543 1.46181 22.6888 2.10644 22.8681C3.0779 23.1008 4.09778 23.0243 5.02366 22.6493C5.94954 22.2743 6.73519 21.6195 7.2709 20.7763C7.72582 20.0771 8.00517 19.2785 8.08519 18.4482C8.16522 17.6179 8.04355 16.7805 7.73053 16.0074C7.91521 15.86 8.11217 15.7288 8.31925 15.6151C8.71721 15.38 9.09626 15.1481 9.43255 14.9689C10.584 14.4295 11.8406 14.1518 13.1121 14.1557C15.781 14.4698 16.3081 16.1348 16.2069 16.8362C16.1596 17.085 16.0596 17.3208 15.9135 17.5278C15.7674 17.7347 15.5787 17.9079 15.36 18.0358C15.175 18.1534 15.1134 18.1929 15.1298 18.2767C15.152 18.4001 15.2416 18.3943 15.3987 18.3721C15.7997 18.2454 16.153 18.0003 16.4121 17.6691C16.6713 17.3379 16.8242 16.936 16.8508 16.5163C16.933 14.8718 15.365 13.0679 12.5891 13.0843C11.7579 13.0857 10.9351 13.2497 10.1668 13.567C10.0435 13.6179 9.9237 13.6728 9.80749 13.7314L9.8116 13.7339ZM5.84432 20.1794C4.95795 21.1439 3.7246 21.5081 3.19179 21.1998C2.61623 20.8709 2.84399 19.4443 3.9318 18.4239C4.57607 17.8434 5.27243 17.3235 6.01206 16.8707C6.14115 16.7885 6.33191 16.6799 6.56131 16.5418C6.60078 16.5196 6.62298 16.5081 6.62298 16.5081L6.75782 16.4259C6.95184 17.0763 6.96949 17.7667 6.80897 18.4262C6.64846 19.0858 6.31555 19.6908 5.84432 20.1794Z" fill="#F6F6F6"/>
</svg>
