<svg width="20" height="19" viewBox="0 0 20 19" fill="none" xmlns="http://www.w3.org/2000/svg">
<path fill-rule="evenodd" clip-rule="evenodd" d="M19.9388 1.48942L19.3493 3.11162C18.8876 4.21262 18.6433 4.7928 18.6163 4.85218C17.9379 6.34454 17.0045 8.08925 15.8882 9.29326C14.8226 10.4427 13.2142 11.5017 11.9261 12.2539C12.2571 13.8893 11.8038 15.6583 10.566 16.9276C8.29502 19.2564 5.75848 19.2568 3.87109 18.6815C2.44062 18.2453 1.26456 17.4535 0.140912 16.4785C-0.0572405 16.3065 -0.0446972 15.9912 0.167729 15.8381L0.6681 15.4675C1.34017 14.9468 1.99288 14.312 2.15855 13.4625C2.273 12.5131 2.33856 11.9956 2.35524 11.91C2.49308 11.2033 2.78476 10.4008 3.49304 9.67443C4.73073 8.40528 6.45571 7.94031 8.05045 8.27973C8.78395 6.95876 9.81672 5.30941 10.9376 4.21649C12.1117 3.07178 13.8131 2.11466 15.2684 1.41904L16.9657 0.667257L18.5476 0.0627119C19.4113 -0.239821 20.2339 0.60372 19.9388 1.48942ZM9.89865 9.09909C10.133 9.26783 10.3565 9.45964 10.566 9.67443C10.7755 9.88922 10.9624 10.1184 11.127 10.3587C11.5184 10.1261 11.9222 9.87363 12.317 9.60817L12.2865 9.53913C12.1706 9.28547 11.9676 8.9359 11.6269 8.58642C11.3348 8.28697 11.0426 8.09128 10.8094 7.96662L10.6304 7.87876C10.3717 8.28362 10.1255 8.69772 9.89865 9.09909ZM17.3429 2.72478C16.9596 2.88758 16.5433 3.07304 16.1135 3.27846C14.7043 3.95202 13.2465 4.79602 12.3161 5.70324C12.1589 5.85642 12.0017 6.02615 11.8453 6.2087C12.2082 6.41459 12.628 6.71185 13.0415 7.13586C13.4549 7.55983 13.7448 7.99037 13.9455 8.3624C14.1236 8.20208 14.2891 8.04073 14.4385 7.87969C15.3231 6.92546 16.1461 5.43054 16.803 3.98547C17.0033 3.54478 17.1842 3.11782 17.3429 2.72478Z" fill="#F6F6F6"/>
</svg>
