<svg width="21" height="26" viewBox="0 0 21 26" fill="none" xmlns="http://www.w3.org/2000/svg">
<path d="M19.6614 3.33923C17.3179 -0.0149205 12.6895 -1.0091 9.34293 1.12309L3.46557 4.86901C1.86014 5.87902 0.754344 7.51848 0.419341 9.38537C0.138978 10.9406 0.385401 12.5449 1.11959 13.9443C0.616506 14.7075 0.273377 15.5647 0.110947 16.4642C-0.227295 18.367 0.215157 20.3257 1.33842 21.8984C3.68241 25.2528 8.31083 26.2466 11.6569 24.1145L17.5342 20.3686C19.1398 19.3587 20.2456 17.7192 20.5805 15.8522C20.8608 14.297 20.6146 12.6927 19.8807 11.2932C20.3837 10.53 20.7267 9.67281 20.8889 8.77336C21.2274 6.87061 20.7849 4.91175 19.6615 3.33923" fill="white"/>
<path d="M8.76815 22.2176C6.87311 22.7103 4.8719 21.9685 3.75586 20.3597C3.08003 19.4137 2.81381 18.2354 3.01731 17.0908C3.05142 16.9048 3.09836 16.7213 3.1578 16.5418L3.26852 16.2042L3.56972 16.4254C4.26533 16.9365 5.0431 17.3251 5.8695 17.5744L6.08801 17.6407L6.06788 17.8588C6.04118 18.1691 6.12518 18.4787 6.305 18.7329C6.64087 19.2176 7.2434 19.4412 7.81412 19.2931C7.94189 19.2589 8.06367 19.2054 8.17523 19.1344L14.0545 15.3878C14.3454 15.2046 14.5458 14.9076 14.6069 14.5693C14.6678 14.2243 14.5876 13.8693 14.3843 13.5841C14.0482 13.0993 13.4455 12.8756 12.8746 13.0236C12.747 13.0578 12.6254 13.1113 12.5139 13.1822L10.2705 14.6124C9.90155 14.8469 9.49895 15.0237 9.07662 15.1366C7.18159 15.6293 5.18041 14.8876 4.06439 13.2787C3.38854 12.3328 3.12231 11.1544 3.32584 10.0098C3.52731 8.88688 4.19256 7.90076 5.15836 7.29344L11.0371 3.54653C11.4062 3.31158 11.8091 3.13457 12.2317 3.02164C14.1267 2.52893 16.1279 3.27071 17.2439 4.87954C17.9198 5.82549 18.186 7.00382 17.9825 8.14844C17.9482 8.33443 17.9013 8.51786 17.842 8.69745L17.7313 9.03506L17.4302 8.81416C16.7347 8.30275 15.9568 7.91397 15.1303 7.66461L14.9118 7.5983L14.9319 7.38022C14.9584 7.07001 14.8744 6.76042 14.6948 6.50611C14.3589 6.02149 13.7564 5.79785 13.1857 5.94598C13.0579 5.98013 12.9361 6.03366 12.8246 6.10469L6.9453 9.85144C6.65447 10.0345 6.45413 10.3314 6.39336 10.6697C6.33204 11.0146 6.41211 11.3698 6.61552 11.655C6.95159 12.1398 7.55426 12.3635 8.12522 12.2155C8.25296 12.1813 8.37472 12.1277 8.48631 12.0568L10.7295 10.6272C11.0982 10.3923 11.5008 10.2153 11.9232 10.1025C13.8182 9.60975 15.8194 10.3515 16.9354 11.9604C17.6113 12.9063 17.8775 14.0847 17.674 15.2293C17.4724 16.3523 16.8072 17.3385 15.8415 17.9461L9.9627 21.6927C9.59363 21.9276 9.19074 22.1046 8.76806 22.2176" fill="black"/>
</svg>
